<svg width="44" height="16" fill="none" xmlns="http://www.w3.org/2000/svg"><g clip-path="url(#clip0_679:1242)"><path d="M4.212 3.847H5.7l-.744-1.882-.744 1.882z" fill="#2FABF7"/><path d="M22.667 2.234c-.136-.067-.338-.067-.541-.067h-1.352v1.075h1.352c.203 0 .405 0 .54-.067.136-.067.203-.269.203-.47.068-.27-.067-.404-.202-.47z" fill="#228FE0"/><path d="M37.133.219v.806L36.727.22H33.55v.806L33.145.22h-4.327c-.743 0-1.352.134-1.892.403V.22h-3.042v.403C23.546.353 23.14.22 22.599.22H11.716l-.744 1.68-.743-1.68H6.78v.806L6.376.22H3.469L2.117 3.377.562 6.87H4.01l.405-1.075h.947l.405 1.075h3.92v-.806l.339.806h1.96l.338-.806v.806h9.397V5.124h.135c.135 0 .135 0 .135.201v1.478h4.867V6.4c.406.202 1.014.403 1.825.403h2.028l.406-1.075h.946l.406 1.075h3.92V5.795l.609 1.008h3.177V.22h-3.042zM14.285 5.863h-1.15V2.167l-1.622 3.696H10.5L8.877 2.167v3.696H6.578l-.473-1.008H3.807L3.4 5.93H2.117l2.028-4.77h1.69l1.893 4.5v-4.5h1.825l1.487 3.225 1.352-3.225h1.893v4.703zm4.596-3.696h-2.636v.874h2.569v.94h-2.569v.941h2.636V5.93h-3.785V1.16h3.785v1.007zm5.07 1.949c.136.269.203.47.203.873v.94h-1.15v-.604c0-.269 0-.672-.202-.94-.203-.202-.405-.202-.811-.202h-1.217V5.93h-1.149V1.16h2.569c.608 0 1.014 0 1.352.201.338.202.54.538.54 1.075 0 .74-.473 1.142-.81 1.277.337.067.54.268.675.403zm2.028 1.747H24.83v-4.77h1.15v4.77zm13.317 0h-1.622L35.51 2.302v3.56h-2.299l-.405-1.007H30.44l-.406 1.075H28.75c-.541 0-1.217-.135-1.623-.538-.405-.403-.608-.94-.608-1.814 0-.672.135-1.343.608-1.88.338-.404.947-.538 1.69-.538H29.9v1.007h-1.082c-.405 0-.608.068-.878.27-.203.2-.338.604-.338 1.074 0 .538.067.874.338 1.142.202.202.473.269.81.269h.474l1.555-3.695h1.69l1.892 4.501V1.227h1.69l1.96 3.292V1.227h1.15v4.636h.135z" fill="#0571C1"/><path d="M30.847 3.847H32.4l-.743-1.882-.811 1.882zm-11.492 9.674v-3.83l-1.758 1.882 1.758 1.948z" fill="#228FE0"/><path d="M12.122 10.162v.874h2.5v.94h-2.5v1.008h2.771l1.284-1.41-1.216-1.412h-2.84z" fill="#2FABF7"/><path d="M21.924 10.162h-1.42v1.21h1.487c.406 0 .676-.202.676-.605-.068-.403-.338-.605-.744-.605z" fill="#228FE0"/><path d="M42.812 11.304V8.281h-2.84c-.608 0-1.081.134-1.42.403v-.403h-3.109c-.473 0-1.081.134-1.352.403v-.403h-5.475v.403c-.406-.336-1.15-.403-1.487-.403h-3.65v.403c-.339-.336-1.15-.403-1.555-.403h-4.056l-.947 1.008-.879-1.008H9.958v6.584h5.95l.946-1.008.878 1.008h3.65V13.32h.474c.473 0 1.081 0 1.555-.202v1.814h3.042v-1.746h.135c.203 0 .203 0 .203.201v1.545h9.193c.608 0 1.217-.134 1.555-.403v.403h2.907c.608 0 1.217-.067 1.622-.335.676-.404 1.082-1.143 1.082-2.016 0-.47-.136-.94-.338-1.277zM21.856 12.38h-1.352v1.613h-2.163l-1.352-1.545-1.42 1.545h-4.461v-4.77h4.529l1.352 1.545 1.42-1.545h3.582c.879 0 1.893.268 1.893 1.545-.068 1.344-1.014 1.612-2.028 1.612zm6.76-.268c.135.201.203.47.203.873v.94h-1.15v-.604c0-.269 0-.74-.202-.94-.136-.202-.406-.202-.811-.202h-1.217v1.747h-1.15v-4.77h2.57c.54 0 1.013 0 1.351.201.338.202.609.537.609 1.075 0 .739-.474 1.142-.812 1.277.338.134.541.268.609.403zm4.664-1.949h-2.636v.874h2.569v.94h-2.57v.94h2.637v1.009h-3.785v-4.77h3.785v1.007zm2.84 3.763h-2.164v-1.008h2.163c.203 0 .338 0 .474-.134a.512.512 0 00.135-.336.512.512 0 00-.136-.336c-.067-.068-.202-.135-.405-.135-1.082-.067-2.366 0-2.366-1.478 0-.672.406-1.41 1.622-1.41h2.231v1.141h-2.096c-.202 0-.338 0-.473.068-.135.067-.135.201-.135.335 0 .202.135.27.27.337.136.067.27.067.406.067h.608c.609 0 1.015.134 1.285.403.203.201.338.537.338 1.008 0 1.007-.608 1.478-1.758 1.478zm5.813-.47c-.27.268-.744.47-1.42.47H38.35v-1.008h2.163c.203 0 .338 0 .474-.134a.512.512 0 00.135-.336.512.512 0 00-.136-.336c-.067-.068-.202-.135-.405-.135-1.082-.067-2.366 0-2.366-1.478 0-.672.405-1.41 1.622-1.41h2.231v1.141H40.04c-.203 0-.338 0-.473.068-.135.067-.135.201-.135.335 0 .202.067.27.27.337.135.067.27.067.406.067h.608c.608 0 1.014.134 1.285.403.067 0 .067.067.067.067.203.269.27.605.27.94 0 .404-.135.74-.405 1.008z" fill="#0571C1"/><path d="M27.399 10.296c-.136-.067-.338-.067-.541-.067h-1.352v1.075h1.352c.203 0 .405 0 .54-.067.136-.067.203-.269.203-.47.068-.269-.067-.403-.202-.47zm-4.732-8.062c-.135-.067-.338-.067-.54-.067h-1.353v1.075h1.352c.203 0 .406 0 .541-.067s.203-.269.203-.47c.068-.27-.068-.404-.203-.47zm8.18 1.613H32.4l-.743-1.882-.811 1.882zm-11.492 9.674v-3.83l-1.758 1.882 1.758 1.948zm2.569-3.359h-1.42v1.21h1.487c.406 0 .676-.202.676-.605-.068-.403-.338-.605-.744-.605z" fill="#228FE0"/><path d="M27.399 10.296c-.136-.067-.338-.067-.541-.067h-1.352v1.075h1.352c.203 0 .405 0 .54-.067.136-.067.203-.269.203-.47.068-.269-.067-.403-.202-.47z" fill="#228FE0"/><path d="M21.45 13.79l-.946-1.007v1.142h-2.23l-1.353-1.546-1.487 1.546h-4.461V9.222h4.529l1.42 1.545.675-.806-1.69-1.68H9.96v6.584h5.948l1.014-1.008.879 1.008h3.65V13.79zm-7.03-6.987l-.879-.94h-.406V5.46l-1.014-1.008-.676 1.41H10.5L8.877 2.168v3.696H6.578l-.473-1.008H3.807l-.473 1.008H2.117L4.145 1.16h1.69l1.893 4.5v-4.5h1.014L7.795.219H6.781v.806L6.443.22H3.47L2.117 3.377.562 6.803h3.515l.406-1.008h.946l.473 1.008h3.786v-.806l.338.806h1.96l.338-.806v.806h2.096z" fill="#2FABF7"/><path d="M11.31 3.713l-1.082-1.075.812 1.747.27-.672z" fill="#2FABF7"/><path d="M42.068 14.53a2.455 2.455 0 001.082-1.815l-.947-.94c.068.201.135.403.135.671 0 .404-.135.74-.405 1.008-.27.269-.744.47-1.42.47H38.35v-1.007h2.163c.203 0 .338 0 .474-.135a.512.512 0 00.135-.335.512.512 0 00-.136-.336c-.067-.068-.202-.135-.405-.135-1.082-.067-2.366 0-2.366-1.478 0-.672.405-1.276 1.42-1.41l-.744-.74c-.135.067-.203.134-.27.134V8.08h-3.11c-.473 0-1.082.135-1.352.403V8.08h-5.543v.403c-.406-.335-1.15-.403-1.487-.403h-3.65v.403c-.339-.335-1.15-.403-1.555-.403h-4.056l-.947 1.008-.879-1.008H15.3l2.028 2.016L18.34 9.02h3.582c.88 0 1.893.269 1.893 1.545 0 1.344-.946 1.613-1.96 1.613h-1.352v1.007l1.014 1.008v-1.008h.338c.473 0 1.081 0 1.555-.201v1.814h3.042v-1.747h.135c.203 0 .203 0 .203.202v1.545h9.193c.608 0 1.217-.134 1.555-.403v.403h2.907c.54.067 1.149 0 1.622-.269zm-13.452-2.42c.135.202.203.47.203.874v.94h-1.15v-.604c0-.269 0-.74-.202-.94-.136-.202-.406-.202-.811-.202h-1.217v1.747h-1.15v-4.77h2.57c.54 0 1.013 0 1.351.2.338.202.609.538.609 1.076 0 .739-.474 1.142-.812 1.276.338.135.541.27.609.403zm4.664-1.948h-2.636v.873h2.569v.941h-2.57v.94h2.637v1.009h-3.785v-4.77h3.785v1.007zm2.84 3.763h-2.164v-1.008h2.163c.203 0 .338 0 .474-.135a.512.512 0 00.135-.335.512.512 0 00-.136-.336c-.067-.068-.202-.135-.405-.135-1.082-.067-2.366 0-2.366-1.478 0-.672.406-1.41 1.622-1.41h2.231v1.141h-2.096c-.202 0-.338 0-.473.068-.135.067-.135.201-.135.335 0 .202.135.27.27.336.136.068.27.068.406.068h.608c.609 0 1.015.134 1.285.403.203.201.338.537.338 1.008 0 1.007-.608 1.478-1.758 1.478z" fill="#228FE0"/><path d="M39.364 10.632c0 .202.067.27.27.336.135.068.27.068.406.068h.608c.406 0 .676.067.946.201l-1.013-1.008h-.609c-.203 0-.338 0-.473.067a.512.512 0 00-.135.336zm-2.366-4.031l.136.202h.067l-.203-.202zM33.28 2.906l1.15 2.754V4.048l-1.15-1.142z" fill="#228FE0"/><path d="M21.72 5.123h.136c.135 0 .135 0 .135.202v1.478h4.867V6.4c.406.201 1.014.403 1.825.403h2.028l.406-1.075h.946l.406 1.075h3.92V6.13l-.946-.94v.738h-2.298l-.338-1.075H30.44l-.406 1.075H28.75c-.54 0-1.217-.134-1.623-.537-.405-.403-.608-.94-.608-1.814 0-.672.135-1.344.608-1.881.338-.404.947-.538 1.69-.538H29.9v1.008h-1.08c-.406 0-.609.067-.88.269-.202.201-.337.604-.337 1.075 0 .537.067.873.338 1.142.202.201.473.269.81.269h.474l1.555-3.696h.676l-.946-.94h-1.76c-.744 0-1.352.134-1.893.403V.286h-2.974v.403C23.546.42 23.14.286 22.599.286H11.716l-.744 1.68-.743-1.68H7.254l.947.94h1.352l1.149 2.486.405.403 1.217-2.956h1.893v4.77h-1.15V2.234L11.92 4.922l1.96 1.948h7.774l.068-1.747zm3.11-3.964h1.15v4.77h-1.15V1.16zm-5.949 1.008h-2.636v.873h2.569v.94h-2.569v.942h2.636v1.007h-3.785V1.16h3.785v1.008zm1.893 3.695h-1.149v-4.77h2.569c.608 0 1.014 0 1.352.201.338.202.54.538.54 1.075 0 .74-.473 1.143-.81 1.277.27.067.473.269.54.403.135.269.203.47.203.873v.941h-1.15v-.605c0-.268 0-.671-.202-.94-.068-.135-.27-.135-.676-.135h-1.217v1.68z" fill="#228FE0"/></g><defs><clipPath id="clip0_679:1242"><path fill="#fff" transform="translate(.562 .14)" d="M0 0h42.587v14.872H0z"/></clipPath></defs></svg>