<svg width="1440" height="397" fill="none" xmlns="http://www.w3.org/2000/svg"><mask id="mask0_98:635" style="mask-type:alpha" maskUnits="userSpaceOnUse" x="0" y="0" width="1440" height="399"><path fill="#C4C4C4" d="M0 0h1440v399H0z"/></mask><g mask="url(#mask0_98:635)"><path fill-rule="evenodd" clip-rule="evenodd" d="M1418.42 88.723l61.43-11.486 5.85 89.006-45.7 3.003V397H0V263.889l-.128.008-14.625-222.515L48.62 59.565c63.372 18.182 190.116 54.547 313.934 46.41 57.147-3.756 113.671-16.992 170.195-30.228 65.945-15.442 131.89-30.884 198.824-31.272 72.512-.42 146.185 16.827 219.858 34.074 52.62 12.319 105.25 24.638 157.45 30.519 125.28 14.113 248.12-8.859 309.54-20.345z" fill="#F1F8FF"/></g></svg>