<svg width="21" height="20" fill="none" xmlns="http://www.w3.org/2000/svg"><path d="M19.833 8.694a1.316 1.316 0 00-.003-2.097 1.288 1.288 0 00-.75-.256l-5.25-.2a.133.133 0 01-.116-.088L11.9 1.112a1.304 1.304 0 00-.474-.622 1.288 1.288 0 00-1.959.622L7.66 6.07a.135.135 0 01-.117.088l-5.25.2a1.29 1.29 0 00-.75.256 1.306 1.306 0 00-.462 1.447c.082.26.243.487.46.65l4.118 3.264a.136.136 0 01.047.142l-1.418 5.064a1.316 1.316 0 00.485 1.418 1.288 1.288 0 001.487.024l4.352-2.942a.128.128 0 01.146 0l4.351 2.942a1.276 1.276 0 001.952-.629 1.3 1.3 0 00.02-.783l-1.43-5.082a.131.131 0 01.047-.142l4.136-3.294z" fill="#FFC656"/></svg>