<svg width="44" height="9" fill="none" xmlns="http://www.w3.org/2000/svg"><g clip-path="url(#clip0_679:1273)"><path d="M23.242 8.242c1.987 0 3.597-1.648 3.597-3.68 0-2.033-1.61-3.68-3.597-3.68-1.986 0-3.597 1.647-3.597 3.68 0 2.032 1.61 3.68 3.597 3.68z" fill="#F26E21"/><path d="M3.868 6.325c-.423.388-.97.556-1.84.556h-.36v-4.62h.36c.87 0 1.395.157 1.84.565.465.419.742 1.068.742 1.738 0 .671-.277 1.343-.742 1.76zm-1.57-5.248H.325v6.986h1.963c1.043 0 1.796-.25 2.457-.806a3.533 3.533 0 001.25-2.684c-.001-2.062-1.52-3.496-3.697-3.496zm4.315 6.986h1.342V1.077H6.613v6.986zm4.627-4.306c-.807-.304-1.044-.503-1.044-.879 0-.44.422-.775 1.001-.775.403 0 .733.167 1.085.564l.701-.931A2.983 2.983 0 0010.959.96c-1.217 0-2.147.86-2.147 2 0 .965.433 1.457 1.694 1.919.526.187.794.312.928.398.269.178.404.428.404.722 0 .566-.444.985-1.044.985-.64 0-1.156-.325-1.466-.932l-.866.849c.618.92 1.361 1.33 2.385 1.33 1.393 0 2.373-.944 2.373-2.294 0-1.111-.452-1.614-1.98-2.18zm2.404.816c0 2.055 1.59 3.647 3.635 3.647.578 0 1.073-.116 1.683-.407V6.208c-.537.546-1.013.765-1.622.765-1.352 0-2.313-.995-2.313-2.41 0-1.34.991-2.399 2.252-2.399.639 0 1.125.23 1.683.786V1.347c-.588-.303-1.075-.428-1.653-.428a3.647 3.647 0 00-3.665 3.654zM29.843 5.77l-1.838-4.693H26.54l2.923 7.164h.722l2.974-7.164h-1.456l-1.859 4.692zm3.925 2.293h3.81V6.88H35.11V4.993h2.373V3.81H35.11V2.26h2.467V1.077h-3.809v6.986zm6.43-3.771h-.39V2.175h.411c.838 0 1.293.358 1.293 1.037 0 .702-.455 1.08-1.314 1.08zm2.695-1.154c0-1.308-.887-2.061-2.437-2.061h-1.992v6.986h1.343V5.255h.176l1.857 2.808h1.652l-2.169-2.944c1.014-.209 1.57-.911 1.57-1.98z" fill="#0B161F"/></g><defs><clipPath id="clip0_679:1273"><path fill="#fff" transform="translate(.245 .872)" d="M0 0h43.263v7.436H0z"/></clipPath></defs></svg>