<svg width="244" height="63" fill="none" xmlns="http://www.w3.org/2000/svg"><path d="M27.5 63C42.688 63 55 50.688 55 35.5S42.688 8 27.5 8 0 20.312 0 35.5 12.312 63 27.5 63z" fill="url(#paint0_linear_98:220)"/><path d="M27.5 8c-.726 0-1.446.029-2.158.084a27.393 27.393 0 0116.424 7.147l-.965.965a3.47 3.47 0 00-.916 3.284l.873 3.546L28 36.5l.773-.816.12.51V36c.006.475.745-.849 1.107-.486.368.368 1.517-.514 2-.514.483 0 1.631-.632 2-1l8.381-7.26 3.546.874a3.47 3.47 0 003.284-.916l.024-.024a27.465 27.465 0 011.449 8.826c0 14.461-11.163 26.315-25.342 27.416A28.02 28.02 0 0027.5 63C42.688 63 55 50.688 55 35.5S42.688 8 27.5 8z" fill="url(#paint1_linear_98:220)"/><path d="M27.5 38.735a3.235 3.235 0 100-6.47 3.235 3.235 0 000 6.47z" fill="url(#paint2_linear_98:220)"/><path d="M27.5 16.088c-10.72 0-19.412 8.691-19.412 19.412 0 10.72 8.691 19.412 19.412 19.412 10.72 0 19.412-8.691 19.412-19.412 0-10.72-8.691-19.412-19.412-19.412zm0 30.735c-6.254 0-11.323-5.07-11.323-11.323 0-6.254 5.07-11.324 11.323-11.324 6.254 0 11.324 5.07 11.324 11.324S33.754 46.823 27.5 46.823z" fill="url(#paint3_linear_98:220)"/><path d="M40.218 20.834l.54 2.192-4.868 4.868c.865.954 1.57 2.058 2.072 3.267l4.42-4.42 2.775.684a19.466 19.466 0 00-4.939-6.59z" fill="url(#paint4_linear_98:220)"/><g clip-path="url(#clip0_98:220)"><path d="M52.054 21.275l-9.25 12.333a.715.715 0 01-.462.293l-15.186 3.037-.23.046a.526.526 0 01-.155.015.723.723 0 01-.54-.23.756.756 0 01-.216-.694l.047-.232 3.037-15.185a.714.714 0 01.293-.462l12.333-9.25a.755.755 0 011.002.077l9.25 9.25c.276.266.31.697.077 1.002z" fill="#FFC248"/><path d="M38.102 25.977l-10.946 10.96-.23.047a.526.526 0 01-.155.015.723.723 0 01-.54-.23.756.756 0 01-.216-.694l.047-.232 10.96-10.946a.763.763 0 011.08 1.08z" fill="#FAFAFA"/><path d="M62.229 0H49.896a.77.77 0 00-.603.29l-6.167 7.708a.77.77 0 00.057 1.027l10.792 10.791a.77.77 0 001.026.057l7.709-6.166a.77.77 0 00.29-.603V.771A.771.771 0 0062.229 0z" fill="#455A64"/><path d="M39.875 26.208a3.083 3.083 0 100-6.167 3.083 3.083 0 000 6.167z" fill="#FAFAFA"/></g><path d="M71 44.437V24.84h14.638v3.835H75.242v3.976h9.148v3.835h-9.148v4.115h10.535v3.836H71zm23.34.28c-2.346 0-4.472-.756-6.376-2.268l1.803-2.8c1.626 1.195 3.188 1.792 4.685 1.792 1.183 0 1.774-.392 1.774-1.176a.757.757 0 00-.055-.28.489.489 0 00-.139-.252 1.289 1.289 0 00-.25-.195.928.928 0 00-.332-.196 2.022 2.022 0 00-.36-.168 1.907 1.907 0 00-.416-.168 5.003 5.003 0 00-.472-.168c-.13-.038-.305-.084-.526-.14a12.58 12.58 0 00-.527-.168 15.834 15.834 0 01-1.608-.56 9.97 9.97 0 01-1.359-.812 3.604 3.604 0 01-1.109-1.316c-.24-.541-.36-1.166-.36-1.876 0-1.474.518-2.631 1.553-3.471 1.035-.859 2.328-1.288 3.88-1.288 1.997 0 3.845.579 5.546 1.736l-1.608 2.94c-1.571-.934-2.911-1.4-4.02-1.4-1.035 0-1.553.364-1.553 1.092 0 .503.85 1.045 2.55 1.623.204.075.361.13.472.168.499.168.924.327 1.275.476.351.15.749.355 1.192.616.444.261.795.541 1.054.84.277.28.508.644.693 1.092.185.448.277.942.277 1.483 0 1.605-.526 2.819-1.58 3.64-1.035.802-2.403 1.204-4.103 1.204zm13.646 0c-2.347 0-4.473-.756-6.376-2.268l1.802-2.8c1.626 1.195 3.188 1.792 4.685 1.792 1.183 0 1.774-.392 1.774-1.176a.755.755 0 00-.055-.28.493.493 0 00-.139-.252 1.3 1.3 0 00-.249-.195.929.929 0 00-.333-.196 2.038 2.038 0 00-.36-.168 1.915 1.915 0 00-.416-.168 4.968 4.968 0 00-.472-.168 17.367 17.367 0 00-.526-.14 12.58 12.58 0 00-.527-.168 15.915 15.915 0 01-1.608-.56 9.936 9.936 0 01-1.358-.812 3.593 3.593 0 01-1.109-1.316c-.241-.541-.361-1.166-.361-1.876 0-1.474.518-2.631 1.553-3.471 1.035-.859 2.328-1.288 3.881-1.288 1.996 0 3.844.579 5.545 1.736l-1.608 2.94c-1.571-.934-2.911-1.4-4.02-1.4-1.035 0-1.553.364-1.553 1.092 0 .503.85 1.045 2.551 1.623.203.075.36.13.471.168.499.168.924.327 1.275.476.352.15.749.355 1.193.616.443.261.794.541 1.053.84.277.28.508.644.693 1.092.185.448.277.942.277 1.483 0 1.605-.526 2.819-1.58 3.64-1.035.802-2.403 1.204-4.103 1.204zm12.918 0c-1.46 0-2.68-.41-3.66-1.232-.961-.821-1.441-1.96-1.441-3.416 0-1.586.536-2.78 1.608-3.583 1.09-.802 2.55-1.204 4.38-1.204 1.238 0 2.449.206 3.632.616v-.252c0-1.829-1.063-2.743-3.188-2.743-1.276 0-2.643.27-4.104.811l-1.053-3.247a14.072 14.072 0 015.766-1.204c2.237 0 3.909.56 5.018 1.68 1.072 1.082 1.608 2.678 1.608 4.787v8.707h-4.075v-1.624c-1.127 1.27-2.624 1.904-4.491 1.904zm1.275-2.94c.98 0 1.774-.242 2.384-.728.61-.504.915-1.138.915-1.903v-.756c-.795-.374-1.691-.56-2.689-.56-.924 0-1.645.186-2.162.56-.499.354-.749.877-.749 1.567 0 .56.213 1.008.638 1.344.425.317.979.476 1.663.476zM136.104 49a7.214 7.214 0 01-3.743-1.036l1.414-3.08c.647.393 1.247.589 1.802.589.665 0 1.155-.327 1.469-.98l-5.822-15.062h4.464l3.382 10.219 3.244-10.219h4.38l-5.711 15.37c-.573 1.549-1.22 2.631-1.941 3.247-.721.635-1.7.952-2.938.952zm21.829-4.563V24.84h8.872c2.458 0 4.343.662 5.655 1.988 1.109 1.12 1.664 2.631 1.664 4.535 0 3.005-1.386 5.03-4.159 6.075l4.741 6.999h-4.99l-4.214-6.271h-3.299v6.27h-4.27zm4.27-10.079h4.325c1.035 0 1.839-.252 2.412-.755.573-.523.859-1.214.859-2.072 0-.915-.296-1.605-.887-2.072-.592-.485-1.414-.728-2.468-.728h-4.241v5.627zm19.535 10.359c-1.46 0-2.68-.41-3.659-1.232-.961-.821-1.442-1.96-1.442-3.416 0-1.586.536-2.78 1.608-3.583 1.091-.802 2.551-1.204 4.38-1.204a11 11 0 013.632.616v-.252c0-1.829-1.063-2.743-3.188-2.743-1.275 0-2.643.27-4.103.811l-1.054-3.247a14.08 14.08 0 015.767-1.204c2.236 0 3.909.56 5.018 1.68 1.072 1.082 1.608 2.678 1.608 4.787v8.707h-4.076v-1.624c-1.127 1.27-2.624 1.904-4.491 1.904zm1.276-2.94c.979 0 1.774-.242 2.384-.728.61-.504.915-1.138.915-1.903v-.756c-.795-.374-1.692-.56-2.69-.56-.924 0-1.644.186-2.162.56-.499.354-.749.877-.749 1.567 0 .56.213 1.008.638 1.344.425.317.98.476 1.664.476zm17.016 2.94c-1.848 0-3.438-.7-4.768-2.1-1.331-1.4-1.996-3.303-1.996-5.711 0-2.389.656-4.274 1.968-5.655 1.331-1.4 2.929-2.1 4.796-2.1 1.848 0 3.392.747 4.63 2.24V24h4.214v20.437h-4.214V42.28c-1.183 1.624-2.726 2.436-4.63 2.436zm-1.497-4.76c.702.766 1.562 1.148 2.578 1.148 1.017 0 1.867-.382 2.551-1.148.702-.783 1.053-1.8 1.053-3.051 0-1.213-.351-2.202-1.053-2.968-.684-.784-1.534-1.175-2.551-1.175-1.016 0-1.876.392-2.578 1.175-.702.766-1.054 1.773-1.054 3.024 0 1.213.352 2.212 1.054 2.995zm18.32 4.76c-1.46 0-2.68-.41-3.66-1.232-.961-.821-1.441-1.96-1.441-3.416 0-1.586.536-2.78 1.608-3.583 1.09-.802 2.55-1.204 4.38-1.204 1.238 0 2.449.206 3.632.616v-.252c0-1.829-1.063-2.743-3.189-2.743-1.275 0-2.643.27-4.103.811l-1.053-3.247a14.072 14.072 0 015.766-1.204c2.237 0 3.909.56 5.018 1.68 1.072 1.082 1.608 2.678 1.608 4.787v8.707h-4.075v-1.624c-1.128 1.27-2.625 1.904-4.491 1.904zm1.275-2.94c.98 0 1.774-.242 2.384-.728.61-.504.915-1.138.915-1.903v-.756c-.795-.374-1.691-.56-2.689-.56-.924 0-1.645.186-2.163.56-.499.354-.748.877-.748 1.567 0 .56.212 1.008.638 1.344.425.317.979.476 1.663.476zm10.917 2.66V29.43h4.214v3.024c.961-2.296 2.542-3.397 4.741-3.304v4.451h-.222c-1.441 0-2.56.448-3.354 1.344-.777.877-1.165 2.193-1.165 3.948v5.543h-4.214z" fill="#474747"/><path fill="#5DD0C0" d="M238 39h6v6h-6z"/><defs><linearGradient id="paint0_linear_98:220" x1="-1.294" y1="35.5" x2="54.368" y2="35.5" gradientUnits="userSpaceOnUse"><stop stop-color="#B6C8F0"/><stop offset=".593" stop-color="#8DA8E7"/><stop offset="1" stop-color="#6C8CD5"/></linearGradient><linearGradient id="paint1_linear_98:220" x1="27.782" y1="35.5" x2="57.869" y2="35.5" gradientUnits="userSpaceOnUse"><stop stop-color="#839FE0"/><stop offset=".704" stop-color="#6485D0"/><stop offset="1" stop-color="#7695DB"/></linearGradient><linearGradient id="paint2_linear_98:220" x1="7.98" y1="35.5" x2="46.388" y2="35.5" gradientUnits="userSpaceOnUse"><stop stop-color="#F2FBFF"/><stop offset=".593" stop-color="#FAF7F7"/><stop offset="1" stop-color="#F3EAE6"/></linearGradient><linearGradient id="paint3_linear_98:220" x1="7.98" y1="35.5" x2="46.388" y2="35.5" gradientUnits="userSpaceOnUse"><stop stop-color="#F2FBFF"/><stop offset=".593" stop-color="#FAF7F7"/><stop offset="1" stop-color="#F3EAE6"/></linearGradient><linearGradient id="paint4_linear_98:220" x1="22.324" y1="25.997" x2="46.497" y2="25.997" gradientUnits="userSpaceOnUse"><stop stop-color="#F3EAE6"/><stop offset="1" stop-color="#CDBFBA"/></linearGradient><clipPath id="clip0_98:220"><path fill="#fff" transform="translate(26)" d="M0 0h37v37H0z"/></clipPath></defs></svg>