<svg width="38" height="13" fill="none" xmlns="http://www.w3.org/2000/svg"><g clip-path="url(#clip0_679:1217)"><path d="M14.256 11.82L16.11 1.39h2.898L17.21 11.82h-2.955z" fill="#3C58BF"/><path d="M14.256 11.82l2.376-10.43h2.376L17.21 11.82h-2.955z" fill="#293688"/><path d="M27.699 1.506c-.58-.232-1.507-.464-2.666-.464-2.897 0-4.983 1.449-4.983 3.534 0 1.565 1.449 2.376 2.608 2.898 1.159.521 1.506.869 1.506 1.332 0 .696-.927 1.043-1.738 1.043-1.159 0-1.796-.174-2.781-.58l-.406-.173-.405 2.376c.695.29 1.97.579 3.302.579 3.071 0 5.1-1.449 5.1-3.65 0-1.217-.754-2.144-2.492-2.897-1.043-.522-1.68-.812-1.68-1.333 0-.464.52-.927 1.68-.927.985 0 1.68.174 2.201.405l.29.116.464-2.26z" fill="#3C58BF"/><path d="M27.699 1.506c-.58-.232-1.507-.464-2.666-.464-2.897 0-4.461 1.449-4.461 3.534 0 1.565.927 2.376 2.086 2.898 1.159.521 1.506.869 1.506 1.332 0 .696-.927 1.043-1.738 1.043-1.159 0-1.796-.174-2.781-.58l-.406-.173-.405 2.376c.695.29 1.97.579 3.302.579 3.071 0 5.1-1.449 5.1-3.65 0-1.217-.754-2.144-2.492-2.897-1.043-.522-1.68-.812-1.68-1.333 0-.464.52-.927 1.68-.927.985 0 1.68.174 2.201.405l.29.116.464-2.26z" fill="#293688"/><path d="M32.682 1.39c-.696 0-1.217.058-1.507.753L26.83 11.82h3.129l.579-1.738h3.708l.348 1.739h2.781L34.941 1.39h-2.26zm-1.333 6.953c.174-.522 1.159-3.071 1.159-3.071s.232-.637.405-1.043l.174.985s.58 2.607.696 3.187h-2.434v-.058z" fill="#3C58BF"/><path d="M33.377 1.39c-.695 0-1.217.058-1.507.753l-5.04 9.676h3.129l.579-1.738h3.708l.348 1.739h2.781L34.941 1.39h-1.564zm-2.028 6.953c.232-.58 1.159-3.071 1.159-3.071s.232-.637.405-1.043l.174.985s.58 2.607.696 3.187h-2.434v-.058z" fill="#293688"/><path d="M8.926 8.69l-.29-1.506c-.521-1.738-2.202-3.65-4.056-4.577l2.607 9.27h3.13l4.693-10.43h-3.13L8.927 8.692z" fill="#3C58BF"/><path d="M8.926 8.69l-.29-1.506c-.521-1.738-2.202-3.65-4.056-4.577l2.607 9.27h3.13l4.693-10.43h-2.55L8.926 8.692z" fill="#293688"/><path d="M.872 1.39l.521.116c3.708.869 6.258 3.07 7.243 5.678L7.593 2.26c-.174-.695-.695-.87-1.333-.87H.872z" fill="#FFBC00"/><path d="M.872 1.39c3.708.869 6.779 3.129 7.764 5.736L7.65 3.012a1.414 1.414 0 00-1.39-1.1L.87 1.39z" fill="#F7981D"/><path d="M.872 1.39c3.708.869 6.779 3.129 7.764 5.736l-.695-2.26c-.174-.695-.406-1.39-1.217-1.68L.872 1.39z" fill="#ED7C00"/><path d="M11.822 8.343l-1.97-1.97-.927 2.202-.231-1.449c-.522-1.738-2.202-3.65-4.056-4.577l2.607 9.27h3.129l1.448-3.476zm5.388 3.477l-2.49-2.55-.464 2.55h2.955zm6.665-3.593c.231.232.347.406.29.637 0 .696-.928 1.043-1.74 1.043-1.158 0-1.795-.173-2.78-.58l-.406-.173-.405 2.376c.695.29 1.97.58 3.302.58 1.854 0 3.36-.522 4.23-1.45l-2.491-2.433zm3.36 3.593h2.723l.58-1.74h3.708l.347 1.74h2.782l-.985-4.23-3.477-3.361.174.927s.58 2.607.695 3.187H31.35c.232-.58 1.159-3.071 1.159-3.071s.231-.638.405-1.043" fill="#051244"/></g><defs><clipPath id="clip0_679:1217"><path fill="#fff" transform="translate(.872 .492)" d="M0 0h36.504v12.168H0z"/></clipPath></defs></svg>